<?xml version="1.0" encoding="utf-8"?>
<!-- Generator: Adobe Illustrator 21.0.2, SVG Export Plug-In . SVG Version: 6.00 Build 0)  -->
<svg version="1.1" id="Layer_2" xmlns="http://www.w3.org/2000/svg" xmlns:xlink="http://www.w3.org/1999/xlink" x="0px" y="0px"
	 viewBox="0 0 658.2 149.1" style="enable-background:new 0 0 658.2 149.1;" xml:space="preserve">
<title>solaria-logo-header</title>
<path d="M65.7,2c0,0,0.7-0.4,0.7-0.8c0-0.4-0.3-0.7-0.8-0.7c-0.4,0-0.7,0.3-0.7,0.8C64.9,1.7,65.2,2,65.7,2C65.7,2,65.7,2,65.7,2z"
	/>
<path d="M61.4,2.7c0.4-0.1,0.6-0.5,0.5-0.9c-0.1-0.4-0.4-0.6-0.8-0.6c-0.4,0.1-0.6,0.5-0.5,0.9C60.7,2.5,61,2.7,61.4,2.7z"/>
<path d="M70.1,1.6c0.4,0,0.8-0.3,0.8-0.8s-0.3-0.8-0.8-0.8s-0.8,0.3-0.8,0.8S69.7,1.6,70.1,1.6z"/>
<path d="M10.9,37c0.4,0.2,0.8,0,1-0.4c0.1-0.3,0-0.7-0.2-0.9c-0.4-0.2-0.8,0-1,0.4C10.6,36.4,10.6,36.8,10.9,37z"/>
<path d="M17,29.5c0.2-0.4,0.1-0.8-0.3-1c-0.3-0.2-0.7-0.1-0.9,0.1c-0.2,0.4-0.1,0.8,0.3,1C16.4,29.8,16.8,29.7,17,29.5z"/>
<path d="M1.8,62c0.4,0,0.8-0.3,0.8-0.7c0-0.4-0.2-0.7-0.6-0.8c-0.4,0-0.8,0.3-0.8,0.7C1.2,61.5,1.4,61.9,1.8,62z"/>
<path d="M14.4,33c0.2-0.4,0.1-0.8-0.3-1c-0.3-0.2-0.8-0.1-1,0.2c-0.2,0.4-0.1,0.8,0.3,1C13.7,33.4,14.2,33.3,14.4,33z"/>
<path d="M8.8,40.9c0.4,0.2,0.8,0,1-0.4c0.1-0.3,0-0.7-0.3-0.9c-0.4-0.2-0.8,0-1,0.4C8.4,40.3,8.5,40.7,8.8,40.9z"/>
<path d="M3.8,53.3c0.4,0.1,0.8-0.1,0.9-0.5c0.1-0.4-0.1-0.8-0.5-0.9c-0.4-0.1-0.8,0.1-0.9,0.5C3.3,52.7,3.5,53.1,3.8,53.3z"/>
<path d="M52.8,4.8c0.4-0.1,0.6-0.6,0.5-1c-0.1-0.4-0.5-0.6-0.9-0.5c-0.4,0.1-0.6,0.6-0.5,1C52,4.7,52.4,4.9,52.8,4.8z"/>
<path d="M48.6,6.2C49,6,49.2,5.6,49,5.2c-0.2-0.4-0.6-0.6-0.9-0.4c-0.4,0.2-0.6,0.6-0.4,1C47.8,6.2,48.2,6.3,48.6,6.2z"/>
<path d="M0.8,70.8c0.4,0.1,0.8-0.2,0.8-0.6c0.1-0.4-0.2-0.8-0.6-0.8l0,0c-0.4-0.1-0.8,0.2-0.8,0.6C0.1,70.4,0.4,70.7,0.8,70.8z"/>
<path d="M44.5,7.9c0.4-0.2,0.5-0.7,0.3-1c-0.2-0.3-0.6-0.5-0.9-0.3c-0.4,0.2-0.5,0.7-0.3,1C43.8,7.9,44.2,8,44.5,7.9z"/>
<path d="M1.2,66.4c0.4,0,0.8-0.3,0.8-0.7c0-0.3-0.2-0.7-0.5-0.8c-0.4-0.1-0.8,0.2-0.9,0.6S0.8,66.3,1.2,66.4L1.2,66.4z"/>
<path d="M2.7,57.6c0.4,0.1,0.8-0.2,0.9-0.6c0.1-0.4-0.2-0.7-0.5-0.8c-0.4-0.1-0.8,0.2-0.9,0.6C2.1,57.1,2.3,57.5,2.7,57.6z"/>
<path d="M57,3.6c0.4-0.1,0.6-0.6,0.5-1c-0.1-0.3-0.5-0.6-0.8-0.5c-0.4,0.1-0.6,0.6-0.5,1C56.3,3.4,56.7,3.6,57,3.6z"/>
<path d="M19.9,26.1c0.3-0.3,0.2-0.8-0.1-1.1c-0.3-0.2-0.7-0.2-1,0.1C18.1,25.8,19.2,26.8,19.9,26.1z"/>
<path d="M33,14.4c0.3-0.3,0.4-0.7,0.1-1.1c-0.2-0.3-0.7-0.4-1-0.2c-0.3,0.3-0.4,0.7-0.1,1.1C32.3,14.5,32.7,14.6,33,14.4z"/>
<path d="M5.8,47.6c-0.4-0.1-0.8,0.1-1,0.4c-0.1,0.4,0.1,0.8,0.4,1s0.8-0.1,1-0.4C6.4,48.2,6.2,47.8,5.8,47.6L5.8,47.6z"/>
<path d="M6.9,44.9c0.4,0.1,0.8-0.1,1-0.5c0.1-0.3,0-0.7-0.3-0.9c-0.4-0.1-0.8,0.1-1,0.5C6.5,44.4,6.6,44.7,6.9,44.9z"/>
<path d="M36.7,12c0.3-0.2,0.4-0.7,0.2-1.1c-0.2-0.3-0.6-0.4-1-0.2c-0.3,0.2-0.4,0.7-0.2,1.1C36,12,36.4,12.2,36.7,12z"/>
<path d="M26.1,19.9c0.3-0.3,0.3-0.8,0-1.1c-0.3-0.3-0.7-0.3-1-0.1c-0.3,0.3-0.3,0.8,0,1.1C25.4,20.1,25.8,20.1,26.1,19.9z"/>
<path d="M29.5,17c0.3-0.3,0.3-0.8,0.1-1.1c-0.3-0.3-0.7-0.3-1-0.1c-0.3,0.3-0.3,0.8-0.1,1.1C28.7,17.2,29.2,17.2,29.5,17z"/>
<path d="M22.9,22.9c0.7-0.7-0.5-1.8-1.1-1c-0.3,0.3-0.2,0.8,0.1,1.1S22.6,23.2,22.9,22.9z"/>
<path d="M40.6,9.8c0.3-0.2,0.4-0.7,0.2-1.1c-0.2-0.3-0.6-0.4-0.9-0.3c-0.3,0.2-0.4,0.7-0.2,1.1C39.9,9.9,40.2,10,40.6,9.8z"/>
<path d="M4.8,96.2c-0.1-0.4-0.6-0.6-1-0.5c-0.4,0.1-0.6,0.5-0.5,0.9c0.1,0.4,0.6,0.6,1,0.5C4.7,97,4.9,96.6,4.8,96.2z"/>
<path d="M70.1,147.4c-0.4,0-0.8,0.3-0.8,0.8s0.3,0.8,0.8,0.8s0.8-0.3,0.8-0.8S70.5,147.4,70.1,147.4z"/>
<path d="M65.7,147c-0.4,0-0.8,0.3-0.8,0.7s0.3,0.8,0.7,0.8l0,0c0.4,0,0.8-0.3,0.8-0.7S66.1,147,65.7,147z"/>
<path d="M3.6,92.2c0-0.4-0.4-0.7-0.8-0.7c-0.4,0-0.6,0.3-0.7,0.6C2,92.5,2.3,92.9,2.7,93c0.4,0.1,0.8-0.2,0.9-0.6
	C3.6,92.3,3.6,92.2,3.6,92.2z"/>
<path d="M28.4,132.1c-0.2,0.3-0.1,0.8,0.2,1.1c0.3,0.2,0.7,0.2,1-0.1c0.2-0.3,0.1-0.8-0.2-1.1C29.1,131.8,28.7,131.9,28.4,132.1z"/>
<path d="M21.8,126.2c-0.3,0.3-0.3,0.8,0,1.1c0.3,0.3,0.7,0.3,1,0.1C23.6,126.7,22.6,125.4,21.8,126.2z"/>
<path d="M25,129.3c-0.2,0.3-0.2,0.8,0.2,1.1c0.3,0.2,0.7,0.2,0.9-0.1c0.2-0.3,0.2-0.8-0.2-1.1C25.7,129,25.3,129,25,129.3z"/>
<path d="M5.2,100c-0.4,0.2-0.6,0.6-0.4,1c0.2,0.4,0.6,0.6,0.9,0.4c0.4-0.2,0.6-0.6,0.4-1C6,100,5.6,99.8,5.2,100z"/>
<path d="M13.4,115.8c-0.8,0.5,0.1,1.8,0.9,1.2c0.3-0.3,0.3-0.8,0.1-1.1C14.1,115.7,13.7,115.7,13.4,115.8z"/>
<path d="M1.6,79c0-0.4-0.4-0.7-0.8-0.7c-0.3,0-0.6,0.3-0.7,0.6c-0.1,0.4,0.2,0.8,0.6,0.9s0.8-0.2,0.9-0.6C1.6,79.1,1.6,79.1,1.6,79z
	"/>
<path d="M61.3,146.4c-0.4,0-0.8,0.3-0.8,0.7c0,0.4,0.2,0.7,0.6,0.8c0.4,0,0.8-0.3,0.8-0.7C61.9,146.8,61.7,146.5,61.3,146.4z"/>
<path d="M18.8,122.9c-0.3,0.3-0.3,0.8,0,1.1c0.3,0.3,0.7,0.3,1,0.1c0.3-0.3,0.3-0.8,0-1.1C19.5,122.7,19.1,122.7,18.8,122.9z"/>
<path d="M35.7,137.3c-0.2,0.4,0,0.8,0.3,1c0.3,0.2,0.7,0.1,1-0.2c0.2-0.4,0-0.8-0.3-1C36.3,136.9,35.9,137,35.7,137.3z"/>
<path d="M52.8,144.3c-0.4-0.1-0.8,0.1-0.9,0.5c-0.1,0.4,0.1,0.8,0.5,0.9c0.4,0.1,0.8-0.1,0.9-0.5C53.4,144.8,53.1,144.4,52.8,144.3z
	"/>
<path d="M8.8,108.2c-0.3,0.2-0.4,0.7-0.2,1.1c0.2,0.3,0.6,0.4,0.9,0.3c0.3-0.2,0.4-0.7,0.2-1.1C9.5,108.1,9.2,108,8.8,108.2z"/>
<path d="M44.5,141.1c-0.4-0.1-0.8,0.1-1,0.5c-0.1,0.3,0,0.7,0.3,0.9c0.4,0.1,0.8-0.1,1-0.5C45,141.7,44.9,141.3,44.5,141.1z"/>
<path d="M40.6,139.2c-0.4-0.2-0.8-0.1-1,0.2c-0.2,0.4-0.1,0.8,0.2,1C40.6,141.1,41.5,139.7,40.6,139.2z"/>
<path d="M2,83.4c0-0.4-0.3-0.8-0.8-0.8S0.5,83,0.5,83.4s0.3,0.8,0.7,0.8S2,83.8,2,83.4z"/>
<path d="M48.6,142.8c-0.4-0.1-0.8,0.1-1,0.5c-0.1,0.4,0.1,0.8,0.4,0.9c0.4,0.1,0.8-0.1,1-0.5C49.2,143.4,49,143,48.6,142.8z"/>
<path d="M16,119.5c-0.3,0.3-0.3,0.8,0,1.1c0.2,0.3,0.6,0.3,0.9,0.1c0.3-0.3,0.3-0.8,0-1.1C16.7,119.3,16.3,119.3,16,119.5z"/>
<path d="M6.9,104.1c-0.4,0.2-0.5,0.7-0.3,1c0.2,0.3,0.6,0.5,0.9,0.3c0.4-0.2,0.5-0.7,0.3-1C7.6,104.2,7.3,104,6.9,104.1z"/>
<path d="M32,134.8c-0.2,0.4-0.1,0.8,0.3,1c0.3,0.2,0.8,0.1,1-0.2c0.2-0.4,0.1-0.8-0.3-1C32.7,134.5,32.2,134.5,32,134.8z"/>
<path d="M57,145.4c-0.4-0.1-0.8,0.2-0.9,0.6c-0.1,0.4,0.2,0.7,0.5,0.8c0.4,0.1,0.8-0.2,0.9-0.6C57.6,145.9,57.4,145.6,57,145.4z"/>
<path d="M2.7,87.8c0-0.4-0.4-0.8-0.8-0.7c-0.4,0-0.7,0.3-0.7,0.6c-0.1,0.4,0.2,0.8,0.6,0.9c0.4,0.1,0.8-0.2,0.9-0.6
	C2.7,87.9,2.7,87.9,2.7,87.8z"/>
<path d="M11,112.1c-0.3,0.3-0.4,0.7-0.1,1.1c0.2,0.3,0.6,0.4,0.9,0.2c0.3-0.3,0.4-0.7,0.1-1.1C11.7,112,11.3,111.9,11,112.1z"/>
<path d="M0.7,75.3c1,0,0.9-1.7-0.1-1.5C0.2,74-0.1,74.4,0,74.8C0.1,75.1,0.4,75.3,0.7,75.3z"/>
<path d="M57.4,12.7c0.8-0.2,1.3-1,1.1-1.8c-0.2-0.8-1-1.3-1.8-1.1c-0.8,0.2-1.3,1-1.1,1.8C55.7,12.4,56.5,12.9,57.4,12.7
	C57.3,12.7,57.4,12.7,57.4,12.7z"/>
<path d="M12.9,52.2c0.8,0.2,1.6-0.2,1.9-1c0.2-0.7-0.1-1.5-0.8-1.8c-0.8-0.2-1.6,0.2-1.9,1C11.9,51.2,12.3,51.9,12.9,52.2z"/>
<path d="M18.1,41.2c0.7,0.4,1.6,0.2,2.1-0.5c0.4-0.7,0.2-1.6-0.5-2.1s-1.6-0.2-2.1,0.5C17.2,39.8,17.4,40.8,18.1,41.2L18.1,41.2z"/>
<path d="M15.3,46.6c1.9,0.9,3.1-2.2,1.1-2.8c-0.8-0.2-1.6,0.3-1.9,1.1C14.4,45.6,14.7,46.3,15.3,46.6z"/>
<path d="M69,10.5c0.8-0.2,1.3-1,1.1-1.8C70,8,69.5,7.5,68.8,7.5c-0.8,0.2-1.3,1-1.1,1.8C67.8,10,68.4,10.5,69,10.5z"/>
<path d="M11.1,58c0.8,0.3,1.6-0.2,1.9-1c0.3-0.8-0.2-1.6-1-1.9l0,0c-0.8-0.3-1.6,0.2-1.9,1C9.9,56.9,10.4,57.8,11.1,58z"/>
<path d="M41.1,19.9c0.7-0.4,0.9-1.4,0.5-2.1s-1.4-0.9-2.1-0.5s-0.9,1.4-0.5,2.1S40.4,20.3,41.1,19.9z"/>
<path d="M61.4,10.1c0.2,0.8,0.9,1.4,1.8,1.2c0.8-0.2,1.4-0.9,1.2-1.8s-0.9-1.4-1.8-1.2C61.8,8.5,61.2,9.3,61.4,10.1z"/>
<path d="M36.2,23.2c0.7-0.5,0.8-1.5,0.3-2.1c-0.5-0.7-1.5-0.8-2.1-0.3c0,0-0.1,0-0.1,0.1c-0.6,0.6-0.7,1.5-0.1,2.1
	C34.7,23.6,35.6,23.7,36.2,23.2z"/>
<path d="M29.5,27c1.4,1.5,3.6-0.8,2.1-2.1C31,24.3,30,24.4,29.5,25C29,25.6,29,26.4,29.5,27z"/>
<path d="M21.5,36.1c0.7,0.5,1.6,0.3,2.1-0.4c0.5-0.7,0.3-1.6-0.4-2.1l0,0c-0.7-0.5-1.6-0.3-2.1,0.4C20.6,34.7,20.8,35.6,21.5,36.1
	L21.5,36.1z"/>
<path d="M27.4,31.2c1.4-1.5-1.1-3.5-2.3-1.9c-0.5,0.7-0.4,1.6,0.3,2.1C26,31.9,26.9,31.8,27.4,31.2z"/>
<path d="M51.7,14.6c0.8-0.4,1.1-1.3,0.7-2c-0.3-0.7-1.1-1-1.8-0.8c-0.8,0.4-1.1,1.3-0.7,2C50.3,14.4,51,14.8,51.7,14.6z"/>
<path d="M9.2,70.1c0.8,0.1,1.6-0.5,1.7-1.3c0.1-0.8-0.5-1.6-1.3-1.7S8,67.5,7.9,68.4C7.8,69.2,8.4,69.9,9.2,70.1L9.2,70.1z"/>
<path d="M10.4,61c-0.8,0-1.5,0.6-1.6,1.5c0,0.7,0.4,1.3,1,1.5c0.8,0,1.5-0.6,1.6-1.5C11.5,61.9,11.1,61.3,10.4,61z"/>
<path d="M44.2,16.3c0.4,0.7,1.3,1,2.1,0.6c0.7-0.4,1-1.3,0.6-2.1l0,0c-0.4-0.7-1.3-1-2.1-0.6C44.1,14.6,43.8,15.6,44.2,16.3z"/>
<path d="M70.1,140.5c0.1-0.8-0.5-1.6-1.3-1.7s-1.6,0.5-1.7,1.3l0,0c-0.1,0.8,0.5,1.6,1.3,1.7S70,141.3,70.1,140.5L70.1,140.5z"/>
<path d="M63.1,138c-0.8-0.2-1.6,0.4-1.8,1.2s0.4,1.6,1.2,1.8l0,0c0.8,0.2,1.6-0.4,1.8-1.2S64,138.1,63.1,138z"/>
<path d="M57.3,136.6c-0.8-0.2-1.6,0.3-1.8,1.1c-0.2,0.8,0.3,1.6,1.1,1.8c0,0,0,0,0,0c0.8,0.2,1.6-0.3,1.8-1.1
	C58.6,137.6,58.2,136.8,57.3,136.6z"/>
<path d="M52.6,136.7c0.3-0.8-0.1-1.7-0.9-2s-1.7,0.1-2,0.9s0.1,1.7,0.9,2S52.3,137.5,52.6,136.7z"/>
<path d="M46.3,132.3c-0.8,0-1.3-0.3-1.9,0.4c-0.5,0.7-0.4,1.6,0.3,2.1C46.4,136.2,48.2,133.3,46.3,132.3z"/>
<path d="M41.1,129.4c-0.7-0.4-1.7-0.1-2.1,0.6c-0.4,0.7-0.2,1.5,0.5,2c0.7,0.4,1.7,0.1,2.1-0.6C41.9,130.7,41.7,129.9,41.1,129.4z"
	/>
<path d="M36.5,128.2c0.5-0.7,0.3-1.6-0.4-2.1c-0.7-0.5-1.6-0.3-2.1,0.4l0,0c-0.5,0.7-0.3,1.6,0.4,2.1C35,129.1,36,128.9,36.5,128.2z
	"/>
<path d="M31.6,122.3c-0.6-0.6-1.6-0.6-2.1,0c-0.6,0.6-0.6,1.5,0,2.1C30.8,125.9,33.1,123.7,31.6,122.3z"/>
<path d="M25.2,118c-0.6,0.6-0.7,1.5-0.1,2.1c0.5,0.6,1.4,0.7,2,0.2c0.7-0.5,0.8-1.5,0.3-2.1C26.9,117.5,26,117.4,25.2,118
	C25.3,117.9,25.3,118,25.2,118z"/>
<path d="M21.5,113.2c-0.7,0.5-0.9,1.4-0.4,2.1s1.4,0.9,2.1,0.4s0.9-1.4,0.4-2.1S22.1,112.7,21.5,113.2L21.5,113.2z"/>
<path d="M18.1,108.1c-0.7,0.5-0.9,1.4-0.4,2.1c0.4,0.6,1.3,0.8,2,0.5c0.7-0.5,0.9-1.4,0.4-2.1C19.7,107.9,18.8,107.7,18.1,108.1z"/>
<path d="M16.6,105.4c0.7-0.4,1-1.3,0.6-2.1c-0.4-0.7-1.3-1-2.1-0.6l0,0c-0.7,0.4-1,1.3-0.6,2.1C15,105.6,15.9,105.8,16.6,105.4z"/>
<path d="M14.1,99.9c0.8-0.3,1.1-1.2,0.8-2c-0.3-0.7-1.2-1.1-1.9-0.8c-0.8,0.3-1.1,1.2-0.8,2C12.5,99.8,13.3,100.2,14.1,99.9z"/>
<path d="M12,94.2c0.8-0.2,1.3-1,1.1-1.8c-0.2-0.8-1-1.3-1.8-1.1c-0.8,0.2-1.3,1-1.1,1.8C10.3,93.8,11.1,94.3,12,94.2
	C12,94.2,12,94.2,12,94.2z"/>
<path d="M9.9,85.3c-0.8,0.2-1.4,1-1.2,1.8c0.2,0.8,1,1.4,1.8,1.2s1.4-1,1.2-1.8C11.5,85.7,10.7,85.1,9.9,85.3L9.9,85.3z"/>
<path d="M10.9,80.7c-0.1-0.8-0.8-1.4-1.7-1.3c-0.7,0.1-1.2,0.6-1.3,1.3c0.1,0.8,0.8,1.4,1.7,1.3C10.2,82,10.8,81.4,10.9,80.7z"/>
<path d="M9.1,73.1c-0.8,0-1.5,0.8-1.4,1.6c0,0.7,0.6,1.3,1.3,1.4c0.8,0.1,1.6-0.4,1.7-1.3c0.1-0.8-0.4-1.6-1.3-1.7
	C9.3,73.1,9.2,73.1,9.1,73.1z"/>
<path d="M34.8,40.9c1.9-2.3-1.8-5.2-3.6-2.8C29.4,40.5,32.9,43,34.8,40.9z"/>
<path d="M64.9,18.5c-2.9,0.5-2.1,5,0.8,4.5C68.6,22.5,67.8,18,64.9,18.5z"/>
<path d="M46.4,25.3c-2.5,1.4-0.4,5.3,2.2,4S49,23.8,46.4,25.3z"/>
<path d="M56.9,25.4c2.8-1,1.1-5.4-1.7-4.2S54.2,26.3,56.9,25.4z"/>
<path d="M21.5,62.7c-2.8-0.5-3.7,3.8-0.9,4.4S24.5,63.2,21.5,62.7z"/>
<path d="M28.7,45.2c-2.5-1.4-4.8,2.3-2.4,3.9S31.3,46.7,28.7,45.2z"/>
<path d="M21.4,55c-1,2.7,3.1,4.3,4.2,1.7C26.8,53.9,22.4,52.2,21.4,55z"/>
<path d="M41.2,34.4c2.3-1.9-0.8-5.5-3-3.4S39,36.3,41.2,34.4z"/>
<path d="M25.8,93.1c0-2.9-4.4-3-4.5-0.1S25.8,96.1,25.8,93.1z"/>
<path d="M21.5,86.2c2.9-0.5,2.1-5-0.8-4.5S18.6,86.7,21.5,86.2z"/>
<path d="M29.5,100.6c-1.5-2.5-5.4-0.3-3.9,2.3S31,103.1,29.5,100.6z"/>
<path d="M48.6,119.7c-0.5,0-0.9-0.4-1.5-0.3c-1.2,0.2-2.1,1.4-1.9,2.6c0.1,0.6,0.4,1.1,0.9,1.5C48.6,125.3,51.3,121.2,48.6,119.7z"
	/>
<path d="M34.5,111.2c2.3-1.9-0.8-5.5-3-3.4S32.3,113,34.5,111.2z"/>
<path d="M38,114.7c-1.8,2.2,1.4,5.1,3.4,3S39.9,112.4,38,114.7z"/>
<path d="M58.2,126.4c1-2.8-3.3-4.3-4.3-1.6S57.2,129.2,58.2,126.4z"/>
<path d="M67.5,128.1c0-3-4.7-2.9-4.5,0.1C63.2,131.1,67.5,131,67.5,128.1z"/>
<path d="M21.9,76.2c2.1-2.1-1.1-5.3-3.2-3.2S19.8,78.3,21.9,76.2z"/>
<path d="M63.2,39.3c0.6,0,1.4-0.9,1.7-1.3c0.9-1.4,0.5-3.3-1-4.1c-0.8-0.5-1.7-0.6-2.6-0.3C57.7,34.7,59.5,40.5,63.2,39.3z"/>
<path d="M48.6,40c-3,2.2,0.1,7,3.3,5c1.4-0.9,1.8-2.8,0.8-4.2C51.9,39.4,50,39.1,48.6,40L48.6,40z"/>
<path d="M38.8,49.8c-2.2,3,2.3,6.6,4.7,3.8C46.2,50.5,41.1,46.6,38.8,49.8z"/>
<path d="M36.5,59.7c-3.6-1.2-5.6,4.4-2,5.7C38.3,66.8,40.3,61,36.5,59.7z"/>
<path d="M65.2,113.8c1.2-3.8-4.7-5.6-5.8-1.7C58.4,115.7,64,117.4,65.2,113.8z"/>
<path d="M52.2,104.6c-3-2.2-6.6,2.3-3.8,4.7C51.4,112,55.5,107,52.2,104.6z"/>
<path d="M44.2,97.9c0-4-6.1-3.9-6.1,0S44.2,101.8,44.2,97.9z"/>
<path d="M36.5,89.8c3.8-1.2,1.7-7.1-2-5.7C31,85.4,32.9,91,36.5,89.8z"/>
<path d="M31.6,76.7c2.7,2.8,7-1.5,4.3-4.3S28.8,74,31.6,76.7z"/>
<path d="M63.8,55.4c1.8-1,2.4-3.4,1.4-5.2c-1-1.8-3.4-2.4-5.2-1.4c-1.8,1-2.4,3.3-1.4,5.2C59.7,55.8,62,56.4,63.8,55.4z"/>
<path d="M54.3,58.3c-4-2.3-7.9,3.6-4.1,6.3c1.7,1.2,4.1,0.7,5.3-1c1.2-1.7,0.7-4.1-1-5.3C54.4,58.4,54.4,58.4,54.3,58.3z"/>
<path d="M54.3,90.8c1.8-1,2.4-3.4,1.4-5.2c-1-1.8-3.4-2.4-5.2-1.4c-1.8,1-2.4,3.4-1.4,5.2C50.2,91.2,52.5,91.8,54.3,90.8z"/>
<path d="M60,100.3c1.8,1,4.1,0.4,5.2-1.4s0.4-4.1-1.4-5.2c-1.8-1-4.1-0.4-5.2,1.4c0,0,0,0.1-0.1,0.1C57.6,97.1,58.3,99.3,60,100.3z"
	/>
<path d="M52.7,74.6c0-2.1-1.7-3.8-3.8-3.8c-2.1,0-3.8,1.7-3.8,3.8c0,2,1.6,3.7,3.6,3.8C50.9,78.4,52.7,76.8,52.7,74.6
	C52.7,74.6,52.7,74.6,52.7,74.6z"/>
<path d="M112.4,11.8c0.2-0.4,0-0.8-0.4-1c-0.3-0.1-0.7,0-0.9,0.2c-0.2,0.4,0,0.8,0.4,1C111.8,12.1,112.2,12,112.4,11.8z"/>
<path d="M107.5,9.8c0.4,0.2,0.8,0,1-0.4c0.1-0.3,0-0.7-0.3-0.9c-0.4-0.2-0.8,0-1,0.4C107.1,9.3,107.2,9.6,107.5,9.8z"/>
<path d="M123.1,19.8c0.2-0.3,0.2-0.8-0.2-1.1c-0.3-0.2-0.7-0.2-0.9,0.1c-0.2,0.3-0.2,0.8,0.2,1.1C122.4,20.1,122.8,20,123.1,19.8z"
	/>
<path d="M119.7,16.9c0.2-0.3,0.1-0.8-0.2-1.1c-0.3-0.2-0.7-0.2-1,0.1c-0.2,0.3-0.1,0.8,0.2,1.1C119,17.2,119.4,17.2,119.7,16.9z"/>
<path d="M126.3,22.9c0.3-0.3,0.3-0.8,0.1-1.1s-0.8-0.3-1.1-0.1C124.5,22.4,125.5,23.6,126.3,22.9z"/>
<path d="M132.1,29.6c0.3-0.3,0.3-0.8,0-1.1c-0.2-0.3-0.6-0.3-0.9-0.1c-0.3,0.3-0.3,0.8,0,1.1C131.4,29.7,131.8,29.8,132.1,29.6z"/>
<path d="M134.7,33.2c0.3-0.3,0.4-0.7,0.1-1.1c-0.2-0.3-0.7-0.4-1-0.2c-0.3,0.3-0.4,0.7-0.1,1.1C134,33.3,134.4,33.4,134.7,33.2z"/>
<path d="M129.3,26.2c0.3-0.3,0.2-0.8-0.1-1.1c-0.3-0.2-0.6-0.3-0.9-0.1c-0.3,0.3-0.2,0.8,0.1,1.1C128.6,26.3,129,26.4,129.3,26.2z"
	/>
<path d="M116.1,14.2c0.2-0.4,0.1-0.8-0.3-1c-0.3-0.2-0.7-0.1-0.9,0.2c-0.2,0.4-0.1,0.8,0.3,1C115.5,14.6,115.9,14.5,116.1,14.2z"/>
<path d="M86.7,2.7c0.4,0,0.8-0.3,0.8-0.7c0-0.4-0.2-0.7-0.6-0.8c-0.4,0-0.8,0.3-0.8,0.7C86.1,2.2,86.4,2.6,86.7,2.7z"/>
<path d="M95.3,4.8c0.4,0.1,0.8-0.1,0.9-0.5c0.1-0.4-0.1-0.8-0.5-0.9c-0.4-0.1-0.8,0.1-0.9,0.5C94.7,4.2,94.9,4.6,95.3,4.8z"/>
<path d="M91,3.6c0.4,0.1,0.8-0.2,0.9-0.6c0.1-0.4-0.2-0.7-0.5-0.8c-0.4-0.1-0.8,0.2-0.9,0.6C90.5,3.1,90.7,3.5,91,3.6z"/>
<path d="M82.3,2c0.4,0,0.8-0.3,0.8-0.8c0-0.4-0.2-0.7-0.6-0.7c-0.4,0-0.8,0.3-0.8,0.8C81.8,1.6,82,1.9,82.3,2z"/>
<path d="M77.9,1.6c0.4,0,0.8-0.3,0.8-0.8s-0.3-0.8-0.8-0.8s-0.8,0.3-0.8,0.8S77.5,1.6,77.9,1.6z"/>
<path d="M103.5,7.9c0.4,0.1,0.8-0.1,1-0.5c0.1-0.3,0-0.7-0.3-0.9c-0.4-0.1-0.8,0.1-1,0.5C103.1,7.3,103.2,7.7,103.5,7.9z"/>
<path d="M136.3,35.7c-0.3,0.3-0.4,0.7-0.1,1.1c0.2,0.3,0.6,0.4,0.9,0.2c0.3-0.3,0.4-0.7,0.1-1.1C137,35.7,136.6,35.6,136.3,35.7z"/>
<path d="M99.4,6.2c0.4,0.1,0.8-0.1,1-0.5c0.1-0.4-0.1-0.8-0.4-0.9c-0.4-0.1-0.8,0.1-1,0.5C98.9,5.6,99.1,6.1,99.4,6.2z"/>
<path d="M99.5,142.8c-0.4,0.2-0.6,0.6-0.4,1c0.2,0.4,0.6,0.6,0.9,0.4c0.4-0.2,0.6-0.6,0.4-1C100.3,142.9,99.8,142.7,99.5,142.8z"/>
<path d="M91,145.4c-0.4,0.1-0.6,0.6-0.5,1c0.1,0.3,0.5,0.6,0.8,0.5c0.4-0.1,0.6-0.6,0.5-1C91.8,145.6,91.4,145.4,91,145.4z"/>
<path d="M86.7,146.4c-0.4,0.1-0.6,0.5-0.5,0.9c0.1,0.4,0.4,0.6,0.8,0.6c0.4-0.1,0.6-0.5,0.5-0.9C87.4,146.6,87.1,146.3,86.7,146.4z"
	/>
<path d="M115,134.6c-0.3,0.2-0.4,0.7-0.2,1.1c0.2,0.3,0.7,0.4,1.1,0.2l0,0c0.3-0.2,0.4-0.7,0.2-1.1
	C115.8,134.5,115.4,134.4,115,134.6z"/>
<path d="M118.6,132c-0.3,0.3-0.3,0.8-0.1,1.1c0.3,0.3,0.7,0.3,1,0.1c0.3-0.3,0.3-0.8,0.1-1.1C119.3,131.9,118.9,131.8,118.6,132z"/>
<path d="M103.5,141.1c-0.4,0.2-0.5,0.7-0.3,1c0.2,0.3,0.6,0.5,0.9,0.3c0.4-0.2,0.5-0.7,0.3-1C104.3,141.2,103.9,141,103.5,141.1z"/>
<path d="M95.3,144.3c-0.4,0.1-0.6,0.6-0.5,1c0.1,0.4,0.5,0.6,0.9,0.5c0.4-0.1,0.6-0.6,0.5-1C96.1,144.4,95.7,144.2,95.3,144.3z"/>
<path d="M78,147.4c-0.4,0-0.8,0.3-0.8,0.8s0.3,0.8,0.8,0.8s0.8-0.3,0.8-0.8S78.4,147.4,78,147.4z"/>
<path d="M121.9,129.2c-0.3,0.3-0.2,0.8,0.1,1.1c0.3,0.2,0.6,0.3,0.9,0.1c0.3-0.3,0.2-0.8-0.1-1.1C122.6,129,122.2,129,121.9,129.2z"
	/>
<path d="M107.5,139.2c-0.9,0.5,0,1.9,0.8,1.3c0.4-0.2,0.5-0.7,0.2-1S107.8,139,107.5,139.2z"/>
<path d="M125.2,126.2c-0.7,0.7,0.5,1.8,1.1,1c0.3-0.3,0.2-0.8-0.1-1.1C125.9,125.9,125.4,125.9,125.2,126.2z"/>
<path d="M111.3,137c-0.3,0.3-0.4,0.7-0.1,1.1c0.2,0.3,0.6,0.4,0.9,0.2c0.3-0.3,0.4-0.7,0.1-1.1C112,137,111.6,136.9,111.3,137z"/>
<path d="M82.4,147c-0.4,0.1-0.7,0.5-0.6,0.9c0.1,0.3,0.3,0.6,0.7,0.6c0.4,0,0.8-0.2,0.8-0.7s-0.2-0.8-0.7-0.8
	C82.5,147,82.4,147,82.4,147z"/>
<path d="M131,119.6c-0.2,0.3-0.1,0.8,0.2,1.1c0.3,0.2,0.7,0.2,1-0.1c0.2-0.3,0.1-0.8-0.2-1.1C131.7,119.2,131.3,119.3,131,119.6z"/>
<path d="M128.2,123c-0.7,0.7,0.5,1.7,1.1,1c0.2-0.3,0.2-0.8-0.2-1.1C128.9,122.7,128.5,122.7,128.2,123z"/>
<path d="M84.9,11.3c0.8,0.2,1.6-0.4,1.8-1.2s-0.4-1.6-1.2-1.8s-1.6,0.4-1.8,1.2S84.1,11.2,84.9,11.3z"/>
<path d="M95.5,12.6c-0.2,0.8,0.3,1.6,1.1,1.9c0.7,0.2,1.4-0.1,1.7-0.8c0.2-0.8-0.3-1.6-1.1-1.9C96.5,11.6,95.8,12,95.5,12.6z"/>
<path d="M90.7,12.7c0.8,0.2,1.6-0.3,1.8-1.1c0.2-0.8-0.3-1.6-1.1-1.8c0,0,0,0,0,0c-0.8-0.2-1.6,0.3-1.8,1.1
	C89.4,11.7,89.9,12.5,90.7,12.7z"/>
<path d="M77.7,8.9c0,0.8,0.6,1.5,1.5,1.5c0.8,0,1.4-0.5,1.5-1.3c0-0.8-0.6-1.5-1.5-1.5C78.4,7.6,77.8,8.1,77.7,8.9z"/>
<path d="M122.8,31.4c0.6-0.6,0.5-1.6-0.1-2.1c-0.5-0.4-1.2-0.5-1.8-0.2c-0.7,0.4-1,1.3-0.6,2.1c0.4,0.7,1.3,1,2.1,0.6
	C122.6,31.6,122.7,31.5,122.8,31.4z"/>
<path d="M111.6,21.1c-0.5,0.7-0.3,1.6,0.4,2.1s1.6,0.3,2.1-0.4s0.3-1.6-0.4-2.1S112.1,20.4,111.6,21.1L111.6,21.1z"/>
<path d="M107,19.9c0.7,0.4,1.6,0.2,2.1-0.5s0.2-1.6-0.5-2.1s-1.6-0.2-2.1,0.5S106.3,19.4,107,19.9z"/>
<path d="M126.6,36.1c0.6-0.5,0.7-1.5,0.2-2.1c-0.5-0.5-1.2-0.7-1.9-0.4c-0.7,0.4-1,1.3-0.6,2c0.4,0.7,1.3,1,2,0.6
	C126.4,36.2,126.5,36.2,126.6,36.1z"/>
<path d="M116.5,27c0.6,0.5,1.6,0.5,2.1-0.2c0.5-0.6,0.5-1.4,0-2C117.2,23.4,114.9,25.7,116.5,27z"/>
<path d="M101.8,17c0.7,0.4,1.6,0.1,2.1-0.6c0.4-0.7,0.1-1.6-0.6-2.1l0,0c-0.7-0.4-1.6-0.1-2.1,0.6C100.8,15.7,101.1,16.6,101.8,17z"
	/>
<path d="M79.3,138.8c-0.8,0.1-1.4,0.9-1.3,1.7c0.1,0.7,0.7,1.2,1.4,1.3c0.8,0,1.5-0.6,1.6-1.4c0-0.8-0.6-1.5-1.4-1.6
	C79.5,138.8,79.4,138.8,79.3,138.8z"/>
<path d="M86.7,139.2c-0.2-0.8-0.9-1.4-1.8-1.2c-0.8,0.2-1.4,0.9-1.2,1.8s0.9,1.4,1.8,1.2C86.3,140.8,86.8,140,86.7,139.2L86.7,139.2
	z"/>
<path d="M90.7,136.6c-0.8,0.2-1.3,1-1.1,1.8c0.2,0.8,1,1.3,1.8,1.1c0.8-0.2,1.3-1,1.1-1.8S91.6,136.4,90.7,136.6
	C90.7,136.6,90.7,136.6,90.7,136.6z"/>
<path d="M96.4,134.8c-0.8,0.3-1.2,1.2-0.9,2c0.3,0.8,1.2,1.2,2,0.9s1.2-1.2,0.9-2C98,134.8,97.1,134.4,96.4,134.8L96.4,134.8z"/>
<path d="M103.8,133c-0.4-0.7-1.4-1-2.1-0.5c-0.6,0.4-0.9,1.2-0.6,1.9c0.4,0.7,1.4,1,2.1,0.5C103.9,134.5,104.1,133.7,103.8,133z"/>
<path d="M107,129.4c-0.7,0.5-0.9,1.4-0.4,2.1c0.4,0.6,1.3,0.8,2,0.5c0.7-0.5,0.9-1.4,0.4-2.1C108.5,129.3,107.7,129.1,107,129.4z"/>
<path d="M111.9,126.1c-0.7,0.5-0.8,1.5-0.3,2.1c0.5,0.7,1.5,0.8,2.1,0.3c0,0,0.1,0,0.1-0.1c0.6-0.6,0.7-1.5,0.1-2.1
	C113.4,125.7,112.5,125.6,111.9,126.1z"/>
<path d="M118.6,122.4c-1.4-1.5-3.6,0.8-2.1,2.1c0.6,0.5,1.6,0.5,2.1-0.2C119.1,123.8,119.1,122.9,118.6,122.4z"/>
<path d="M120.7,118.1c-0.6,0.6-0.5,1.6,0.1,2.1c0.6,0.6,1.6,0.5,2.1-0.1c0,0,0-0.1,0.1-0.1c0.5-0.7,0.4-1.6-0.3-2.1
	C122.1,117.4,121.2,117.5,120.7,118.1z"/>
<path d="M80.5,20.8c0,3,4.7,2.9,4.5-0.1C84.9,17.8,80.5,17.9,80.5,20.8z"/>
<path d="M110.1,34.2c1.8-2.2-1.4-5.1-3.4-3S108.2,36.5,110.1,34.2z"/>
<path d="M89.8,22.4c-1,2.8,3.4,4.3,4.3,1.4C94.9,21.1,90.8,19.8,89.8,22.4z"/>
<path d="M99.4,29.2c2.5,1.4,4.8-2.3,2.4-3.9S96.8,27.7,99.4,29.2z"/>
<path d="M101.7,123.6c2.5-1.5,0.2-5.4-2.3-3.9S99.2,125.1,101.7,123.6z"/>
<path d="M83.2,130.4c2.9-0.5,2.1-5-0.8-4.5S80.3,130.9,83.2,130.4z"/>
<path d="M91.2,123.5c-2.7,1-1.2,5.3,1.6,4.3C95.5,126.8,93.9,122.5,91.2,123.5z"/>
<path d="M82.9,35.4c-1.2,3.7,4.6,5.6,5.8,1.9S84.1,31.7,82.9,35.4z"/>
<path d="M84.8,110c-3.8,1.2-1.7,7.1,2,5.7C90.4,114.3,88.5,108.8,84.8,110z"/>
<path d="M86,74.6c0-5.2-3.3-9.8-8.2-11.5c-4.7-1.6-9.8-0.1-13,3.6c-4.3,5.1-3.7,12.7,1.3,17s12.7,3.7,17-1.3
	C85,80.2,86,77.5,86,74.6z"/>
<path d="M74.5,0.2c-0.7-0.6-1.4,0.5-0.8,1.1S75,0.8,74.5,0.2z"/>
<path d="M75.1,7.7c-0.6-0.6-1.6-0.6-2.2,0c-0.6,0.6-0.6,1.6,0,2.2C74.3,11.2,76.5,9,75.1,7.7z"/>
<path d="M75.6,18.3c-2.1-2.1-5.3,1.1-3.2,3.2S77.7,20.4,75.6,18.3z"/>
<path d="M76.2,31.4c-2.8-2.7-7.1,1.5-4.3,4.3S78.9,34.1,76.2,31.4z"/>
<path d="M76.7,46c-1.5-1.5-3.9-1.5-5.3,0s-1.5,3.9,0,5.3c1.4,1.4,3.5,1.5,5,0.3c1.6-1.3,1.9-3.7,0.6-5.4
	C76.9,46.2,76.8,46.1,76.7,46z"/>
<path d="M76.7,97.8c-1.5-1.5-3.9-1.5-5.3,0c-1.5,1.5-1.5,3.9,0,5.3c1.4,1.4,3.5,1.5,5,0.3c1.6-1.3,1.9-3.7,0.6-5.4
	C76.9,98,76.8,97.9,76.7,97.8z"/>
<path d="M76.2,113.4c-2.8-2.8-7.1,1.5-4.3,4.3S78.9,116.1,76.2,113.4z"/>
<path d="M75.5,127.3c-2-2-5,1.2-3,3.2S77.5,129.3,75.5,127.3z"/>
<path d="M75.1,139.5c-0.6-0.6-1.6-0.6-2.2,0s-0.6,1.6,0,2.2C74.3,143.1,76.5,140.9,75.1,139.5z"/>
<path d="M74.6,147.8c-0.7-0.7-1.8,0.4-1.1,1.1S75.3,148.5,74.6,147.8z"/>
<path d="M94.5,89.3c0.5,5.5,2.8,10.7,7.8,13.5s11.6,3.1,17,1.8c5.6-1.4,9.8-5.4,10.4-11.2c0.4-2.7-0.2-5.5-1.6-7.8
	c-1.6-2.1-3.8-3.7-6.2-4.7C111.9,76.6,95.9,78,91.1,66c-2.1-5.4-1.4-11.5,2-16.2c3.3-4.4,8.5-6.8,13.8-7.6c5.6-0.8,11.8-0.4,17,2.1
	c5,2.5,8.6,7.2,9.6,12.7c0.3,1.4,0.4,2.9,0.4,4.4h-4c-0.4,0-1.5,0.2-1.8,0s-0.1-1.2-0.1-1.5c-0.1-0.8-0.2-1.7-0.4-2.5
	c-1.6-6.7-8-9.9-14.4-10.3c-5.9-0.3-12.7,1.4-15.8,6.9c-1.6,2.9-1.9,6.4-0.8,9.5c1.1,2.8,3.5,4.6,6.1,5.8c10.5,5,29.4,3,32.7,17.5
	c1.2,5.4,0.3,11.7-3.2,16.1c-3.4,4.2-8.5,6.2-13.7,7c-6.3,1-13.4,0.7-19.2-2.1c-5.5-2.6-9.4-7.7-10.5-13.7c-0.3-1.6-0.4-3.2-0.4-4.8
	L94.5,89.3z"/>
<path d="M148.8,76.3c-0.1-7,1.5-14,4.8-20.1c3.2-5.7,8.3-10.1,14.3-12.4c6.4-2.3,13.3-2.5,19.8-0.8c6.2,1.6,11.6,5.4,15.4,10.6
	c4,5.6,5.9,12.4,6.3,19.2c0.6,7.2-0.5,14.4-3.4,21c-2.7,6-7.3,10.9-13.2,13.9c-6.1,3-13.3,3.6-19.9,2.4c-6.5-1.1-12.3-4.5-16.5-9.6
	c-4.3-5.3-6.5-11.9-7.3-18.6C148.9,80,148.8,78.2,148.8,76.3z M179.2,105.3c5.5,0.1,11-1.7,15.2-5.3c4-3.7,6.7-8.5,7.9-13.8
	c2.5-10.6,1.5-24.3-6.5-32.5c-7.6-7.8-21.3-8.8-30.1-2.6c-9.6,6.8-11.9,20.2-10.4,31.2c0.8,6.1,3,12.2,7.4,16.7
	S173,105.3,179.2,105.3L179.2,105.3z"/>
<path d="M224.8,108.8V43.6h6.1v60h35v5.3L224.8,108.8z"/>
<path d="M276.2,108.8l25.6-65.2h7l25,65.2h-6.3l-7.6-20.5h-29.7l-7.7,20.5L276.2,108.8z M292.3,83.1h25.5l-12.8-34.3L292.3,83.1z"/>
<path d="M354.7,79.2v29.6l-6.2-0.1V43.6H374c7.2,0,12.7,1.3,16.5,4c3.8,2.7,5.7,7,5.7,13.1c0,4.1-0.8,7.4-2.5,9.8s-4.4,4.5-8.1,6.2
	c1.7,0.5,3.3,1.5,4.5,2.9c1.1,1.3,1.9,2.8,2.5,4.3c0.5,1.7,0.9,3.4,1,5.2c0.2,1.8,0.3,3.6,0.3,5.2c0.1,2.5,0.2,4.5,0.3,6.2
	c0.1,1.3,0.3,2.7,0.5,4c0.1,0.8,0.4,1.6,0.8,2.4c0.3,0.5,0.6,1,1.1,1.3v0.5l-6.8,0.1c-0.8-1.4-1.2-2.9-1.4-4.5
	c-0.3-1.9-0.5-4-0.6-6.1c-0.1-2.1-0.3-4.2-0.4-6.2c-0.1-1.6-0.2-3.3-0.5-4.9c-0.3-1.5-0.8-2.9-1.7-4.2c-0.8-1-1.8-1.8-2.9-2.4
	c-1.2-0.6-2.5-0.9-3.9-1.1c-1.5-0.2-2.9-0.3-4.4-0.3L354.7,79.2z M373.9,73.9c2.2,0,4.3-0.2,6.4-0.7c1.8-0.4,3.6-1.2,5.1-2.3
	c1.4-1,2.6-2.4,3.4-4c0.9-1.8,1.3-3.9,1.2-5.9c0.1-2.1-0.4-4.1-1.3-6c-0.8-1.5-2-2.8-3.5-3.7c-1.6-0.9-3.3-1.6-5.1-1.9
	c-2-0.4-3.9-0.5-5.9-0.5h-19.6v25.1L373.9,73.9z"/>
<path d="M414.2,108.8V43.6h6.2v65.2H414.2z"/>
<path d="M434.2,108.8l25.7-65.2h7l25,65.2h-6.4L478,88.3h-29.7l-7.7,20.5H434.2z M450.4,83.1h25.5l-12.8-34.3L450.4,83.1z"/>
<path d="M511.9,108.8V43.6h5.4v65.2H511.9z"/>
<path d="M547.7,81.5c2.2-0.2,4.3-0.6,6.4-1.2c2.1-0.8,2.6-2.4,2.7-4.5c0.2-3.8-1.5-7.6-5.2-9.1s-8.5-1.4-12.3-0.4
	c-4.3,1.2-7,4.6-7.7,8.9c-0.1,0.8,0.1,1.1-0.7,1.1h-5c0.1-4.1,1.9-8.1,4.9-10.9c3.2-2.9,7.6-4.1,11.8-4.5s9.2,0,13.1,2.1
	c3.5,1.9,5.8,5.3,6.3,9.3c0.5,3.3,0.2,6.9,0.2,10.3v14.2c0,1.4,0,2.8,0,4.1c0,1.2,0,2.8,0.8,3.8c1.1,1.4,3.6,0.5,4.9,0v3
	c0,0.3,0.1,1,0,1.2c-0.2,0.4-2.1,0.7-2.5,0.8c-1.9,0.4-4.8,0.3-6.3-0.9c-1.8-1.5-2.2-3.9-2.2-6.1c-4.3,4.8-10.3,7.6-16.8,7.8
	c-6.3,0.2-13.1-2.2-15.6-8.5c-1.7-4.3-1-9.2,1.7-12.9c2.9-3.6,7.6-5.1,11.9-5.9C541.4,82.2,544.6,81.9,547.7,81.5z M556.9,84.2
	c-3.1,1.2-6.4,2-9.7,2.2c-3.2,0.3-6.4,0.4-9.4,1.2c-2.4,0.5-4.6,1.7-6.3,3.5c-1.6,2.1-2.2,4.8-1.6,7.3c1.3,7.1,10.1,7.4,15.6,6.1
	c5.8-1.3,10.8-5.3,11.4-11.5C557.1,90.1,556.9,87.1,556.9,84.2z"/>
<path d="M579.6,108.8h-4.1c-0.2,0-1,0.1-1.2,0s-0.1-0.6-0.1-0.9V45.1c0-0.3-0.2-1.3,0-1.5s0.8,0,1,0h3.5c0.3,0,0.8-0.1,1,0.1
	s0,0.9,0,1.2v24.6c4.6-7.7,14.8-10.4,23.2-7.9c8.7,2.6,13.2,11,14.3,19.5s-0.4,19-7.3,24.7s-17.6,5.8-24.8,0.7
	c-2-1.4-3.6-3.2-4.8-5.3c-0.3-0.5-0.4-0.8-0.5-0.3c0,0.5,0,0.9,0,1.4L579.6,108.8z M579.6,85.2c0,7.3,2.5,15.6,9.8,18.8
	c7.1,3,15.3,0.4,19.3-6.1c1.8-3.2,2.8-6.9,2.8-10.6c0.2-4-0.3-7.9-1.6-11.7c-1.2-3.4-3.5-6.3-6.6-8.2c-3.2-1.8-6.9-2.4-10.6-1.8
	C583.7,67.3,579.6,76.9,579.6,85.2z"/>
<path d="M627.1,94.1c0.8,3.7,2.3,7.5,5.8,9.4c3.9,1.9,8.3,2.3,12.5,1.2c4.4-1.1,7.8-4.7,7.2-9.5c-0.6-4.5-5.6-6-9.3-6.9
	c-7.8-2-19.8-2.6-20.6-12.9c-0.4-4.1,1.1-8.2,4.2-11c3.1-2.7,7.2-3.6,11.1-3.7c4.7-0.2,9.8,0.6,13.6,3.5c3.5,2.6,5,7,5.5,11.2h-4.7
	c-0.8,0-0.8,0.2-0.9-0.7c-0.5-4-3.3-7.3-7.1-8.5c-3.9-1.2-9.2-1.3-12.7,1c-3.3,2.2-4.7,7.7-1.6,10.7c1.8,1.5,3.8,2.6,6.1,3.2
	c2.5,0.8,5.1,1.4,7.6,1.9c4.6,1,9.6,2.7,12.6,6.5c2.7,3.3,2.7,8.9,0.8,12.5c-2.2,4.3-6.7,6.5-11.3,7.4c-5.4,1.1-11.5,1-16.3-1.8
	c-4.8-2.9-7.8-8-8-13.6H627.1z"/>
<polygon points="541.4,141.5 531.2,127 528.7,127 528.7,146.8 531.5,146.8 531.5,132.3 541.7,146.8 544.2,146.8 544.2,127 
	541.4,127 "/>
<polygon points="513.7,138 524.2,138 524.2,135.2 513.7,135.2 513.7,129.8 524.8,129.8 524.8,127 511,127 511,146.8 524.9,146.8 
	524.9,144 513.7,144 "/>
<path d="M556.5,127h-7.3v19.7h6.5c6.9,0,9.3-5.3,9.3-9.9C565.1,134.6,564.4,127,556.5,127z M552,129.8h4.3c4,0,5.9,2.4,5.9,7.1
	c0,6.6-4.9,7.1-6.4,7.1H552V129.8z"/>
<polygon points="485.9,127 483.1,127 483.1,146.8 496.1,146.8 496.1,144 485.9,144 "/>
<path d="M232.7,127l-8,19.7h3l2.3-5.7h7.4l2.3,5.7h3l-7.8-19.7H232.7z M231.2,138.3l2.6-6.5l2.5,6.5H231.2z"/>
<polygon points="572.5,138 582.9,138 582.9,135.2 572.5,135.2 572.5,129.8 583.6,129.8 583.6,127 569.7,127 569.7,146.8 
	583.7,146.8 583.7,144 572.5,144 "/>
<path d="M657.1,145.1c-0.2-1-0.3-2-0.2-3c0-1.9-0.2-3.8-1.7-4.9c1.3-1.1,2.1-2.7,2-4.4c0-2.6-1.2-5.6-6.5-5.6h-8.3v19.7h2.8v-8.2
	h5.4c3.2,0,3.5,0.9,3.5,3.4c0,1.1,0,3.1,0.4,4.1l0.3,0.7h3.4L657.1,145.1z M654.4,132.6c0,0.8-0.2,1.6-0.8,2.2
	c-0.8,0.7-1.9,1.1-3.1,1h-5.4v-6h5.6C653.9,129.8,654.4,131.2,654.4,132.6L654.4,132.6z"/>
<path d="M629.3,126.7c-6.3,0-9.2,5.2-9.2,10.3c0,5.1,2.9,10.3,9.2,10.3s9.2-5.2,9.2-10.3C638.5,131.8,635.7,126.7,629.3,126.7z
	 M629.3,129.4c3.9,0,6.4,2.9,6.4,7.5c0,4.6-2.5,7.5-6.4,7.5s-6.4-2.9-6.4-7.5C623,132.3,625.4,129.4,629.3,129.4z"/>
<path d="M593.3,127l-8,19.7h3l2.3-5.7h7.4l2.3,5.7h3l-7.8-19.7H593.3z M591.8,138.3l2.6-6.5l2.5,6.5H591.8z"/>
<polygon points="610.3,141.9 604.5,127 601.6,127 609.3,146.8 611.4,146.8 618.9,127 616,127 "/>
<rect x="273.4" y="127" width="2.8" height="19.7"/>
<path d="M332.9,142.1c0-1.9-0.2-3.8-1.7-4.9c1.3-1.1,2.1-2.7,2-4.4c0-2.6-1.2-5.6-6.5-5.6h-8.3v19.7h2.8v-8.2h5.4
	c3.2,0,3.5,0.9,3.5,3.4c0,1.1,0,3.1,0.4,4.1l0.3,0.7h3.4l-1.1-1.7C333,144.1,332.9,143.1,332.9,142.1z M321.2,135.8v-6h5.6
	c3.1,0,3.6,1.3,3.6,2.8c0,0.8-0.2,1.6-0.8,2.2c-0.8,0.7-1.9,1.1-3.1,1H321.2z"/>
<polygon points="303.5,138 313.9,138 313.9,135.2 303.5,135.2 303.5,129.8 314.6,129.8 314.6,127 300.7,127 300.7,146.8 
	314.7,146.8 314.7,144 303.5,144 "/>
<path d="M419.7,139.2c0,3.6-1.5,5.3-4.8,5.3s-4.8-1.7-4.8-5.3V127h-2.8v12.1c0,5.2,2.7,8.1,7.6,8.1s7.6-2.9,7.6-8.1V127h-2.8V139.2z
	"/>
<polygon points="335.9,129.8 342.1,129.8 342.1,146.8 344.9,146.8 344.9,129.8 351.2,129.8 351.2,127 335.9,127 "/>
<polygon points="360.8,135.8 354.7,127 351.3,127 359.4,138.7 359.4,146.8 362.2,146.8 362.2,138.7 370.3,127 367,127 "/>
<path d="M456.7,139.2c0,3.6-1.5,5.3-4.8,5.3s-4.8-1.7-4.8-5.3V127h-2.8v12.1c0,5.1,2.8,8.1,7.6,8.1s7.6-2.9,7.6-8.1V127h-2.8V139.2z
	"/>
<polygon points="259.7,127 257,127 257,146.8 270,146.8 270,144 259.7,144 "/>
<polygon points="401.1,126.9 401,127 399.7,127 393,142.2 386.4,127 385,127 384.9,126.9 384.9,127 383.7,127 383.7,146.8 
	386.5,146.8 386.5,134.2 392,146.8 394.1,146.8 399.6,134.2 399.6,146.8 402.4,146.8 402.4,127 401.1,127 "/>
<path d="M472.5,127h-2.2l-8,19.7h3l2.3-5.7h7.4l2.3,5.7h3l-7.5-19L472.5,127z M468.7,138.3l2.6-6.5l2.5,6.5H468.7z"/>
<path d="M293.9,136.4c1.1-1,1.7-2.4,1.7-3.9c0-3.3-2.4-5.5-6-5.5H281v19.7h8.3c4.2,0,6.9-2.3,6.9-5.9
	C296.2,139.2,295.4,137.4,293.9,136.4z M289.5,144h-5.8V138h5.9c1.1,0,3.8,0.3,3.8,3C293.4,142.9,292,144,289.5,144z M289.6,135.2
	h-5.9v-5.3h5.9c1.5,0,3.3,0.5,3.3,2.7C292.9,134.5,291.1,135.2,289.6,135.2L289.6,135.2z"/>
<polygon points="425.7,129.8 432,129.8 432,146.8 434.8,146.8 434.8,129.8 441.1,129.8 441.1,127 425.7,127 "/>
</svg>
